<mxfile host="app.diagrams.net" agent="Mozilla/5.0 (Macintosh; Intel Mac OS X 10_15_7) AppleWebKit/537.36 (KHTML, like Gecko) Chrome/141.0.0.0 Safari/537.36" version="28.2.7">
  <diagram name="Page-1" id="UjzRGuyqtp27Tf2aj1kZ">
    <mxGraphModel dx="1118" dy="714" grid="1" gridSize="10" guides="1" tooltips="1" connect="1" arrows="1" fold="1" page="1" pageScale="1" pageWidth="850" pageHeight="1100" math="0" shadow="0">
      <root>
        <mxCell id="0" />
        <mxCell id="1" parent="0" />
        <mxCell id="8m9GqBXwm7ANQW8s6YDh-2" value="Account" style="swimlane;fontStyle=1;align=center;verticalAlign=top;childLayout=stackLayout;horizontal=1;startSize=26;horizontalStack=0;resizeParent=1;resizeParentMax=0;resizeLast=0;collapsible=1;marginBottom=0;whiteSpace=wrap;html=1;" vertex="1" parent="1">
          <mxGeometry x="20" y="20" width="170" height="294" as="geometry" />
        </mxCell>
        <mxCell id="8m9GqBXwm7ANQW8s6YDh-3" value="- String: name" style="text;strokeColor=none;fillColor=none;align=left;verticalAlign=top;spacingLeft=4;spacingRight=4;overflow=hidden;rotatable=0;points=[[0,0.5],[1,0.5]];portConstraint=eastwest;whiteSpace=wrap;html=1;" vertex="1" parent="8m9GqBXwm7ANQW8s6YDh-2">
          <mxGeometry y="26" width="170" height="26" as="geometry" />
        </mxCell>
        <mxCell id="8m9GqBXwm7ANQW8s6YDh-6" value="- String: email" style="text;strokeColor=none;fillColor=none;align=left;verticalAlign=top;spacingLeft=4;spacingRight=4;overflow=hidden;rotatable=0;points=[[0,0.5],[1,0.5]];portConstraint=eastwest;whiteSpace=wrap;html=1;" vertex="1" parent="8m9GqBXwm7ANQW8s6YDh-2">
          <mxGeometry y="52" width="170" height="26" as="geometry" />
        </mxCell>
        <mxCell id="8m9GqBXwm7ANQW8s6YDh-7" value="- String: password" style="text;strokeColor=none;fillColor=none;align=left;verticalAlign=top;spacingLeft=4;spacingRight=4;overflow=hidden;rotatable=0;points=[[0,0.5],[1,0.5]];portConstraint=eastwest;whiteSpace=wrap;html=1;" vertex="1" parent="8m9GqBXwm7ANQW8s6YDh-2">
          <mxGeometry y="78" width="170" height="26" as="geometry" />
        </mxCell>
        <mxCell id="8m9GqBXwm7ANQW8s6YDh-8" value="- String: location" style="text;strokeColor=none;fillColor=none;align=left;verticalAlign=top;spacingLeft=4;spacingRight=4;overflow=hidden;rotatable=0;points=[[0,0.5],[1,0.5]];portConstraint=eastwest;whiteSpace=wrap;html=1;" vertex="1" parent="8m9GqBXwm7ANQW8s6YDh-2">
          <mxGeometry y="104" width="170" height="26" as="geometry" />
        </mxCell>
        <mxCell id="8m9GqBXwm7ANQW8s6YDh-10" value="- SecurityQuestion: question" style="text;strokeColor=none;fillColor=none;align=left;verticalAlign=top;spacingLeft=4;spacingRight=4;overflow=hidden;rotatable=0;points=[[0,0.5],[1,0.5]];portConstraint=eastwest;whiteSpace=wrap;html=1;" vertex="1" parent="8m9GqBXwm7ANQW8s6YDh-2">
          <mxGeometry y="130" width="170" height="26" as="geometry" />
        </mxCell>
        <mxCell id="8m9GqBXwm7ANQW8s6YDh-4" value="" style="line;strokeWidth=1;fillColor=none;align=left;verticalAlign=middle;spacingTop=-1;spacingLeft=3;spacingRight=3;rotatable=0;labelPosition=right;points=[];portConstraint=eastwest;strokeColor=inherit;" vertex="1" parent="8m9GqBXwm7ANQW8s6YDh-2">
          <mxGeometry y="156" width="170" height="8" as="geometry" />
        </mxCell>
        <mxCell id="8m9GqBXwm7ANQW8s6YDh-5" value="+ recoverPassword()" style="text;strokeColor=none;fillColor=none;align=left;verticalAlign=top;spacingLeft=4;spacingRight=4;overflow=hidden;rotatable=0;points=[[0,0.5],[1,0.5]];portConstraint=eastwest;whiteSpace=wrap;html=1;" vertex="1" parent="8m9GqBXwm7ANQW8s6YDh-2">
          <mxGeometry y="164" width="170" height="26" as="geometry" />
        </mxCell>
        <mxCell id="8m9GqBXwm7ANQW8s6YDh-34" value="+ changeSecurity()" style="text;strokeColor=none;fillColor=none;align=left;verticalAlign=top;spacingLeft=4;spacingRight=4;overflow=hidden;rotatable=0;points=[[0,0.5],[1,0.5]];portConstraint=eastwest;whiteSpace=wrap;html=1;" vertex="1" parent="8m9GqBXwm7ANQW8s6YDh-2">
          <mxGeometry y="190" width="170" height="26" as="geometry" />
        </mxCell>
        <mxCell id="8m9GqBXwm7ANQW8s6YDh-32" value="+ reportMissing()" style="text;strokeColor=none;fillColor=none;align=left;verticalAlign=top;spacingLeft=4;spacingRight=4;overflow=hidden;rotatable=0;points=[[0,0.5],[1,0.5]];portConstraint=eastwest;whiteSpace=wrap;html=1;" vertex="1" parent="8m9GqBXwm7ANQW8s6YDh-2">
          <mxGeometry y="216" width="170" height="26" as="geometry" />
        </mxCell>
        <mxCell id="8m9GqBXwm7ANQW8s6YDh-80" value="+ viewMssing()" style="text;strokeColor=none;fillColor=none;align=left;verticalAlign=top;spacingLeft=4;spacingRight=4;overflow=hidden;rotatable=0;points=[[0,0.5],[1,0.5]];portConstraint=eastwest;whiteSpace=wrap;html=1;" vertex="1" parent="8m9GqBXwm7ANQW8s6YDh-2">
          <mxGeometry y="242" width="170" height="26" as="geometry" />
        </mxCell>
        <mxCell id="8m9GqBXwm7ANQW8s6YDh-79" style="text;strokeColor=none;fillColor=none;align=left;verticalAlign=top;spacingLeft=4;spacingRight=4;overflow=hidden;rotatable=0;points=[[0,0.5],[1,0.5]];portConstraint=eastwest;whiteSpace=wrap;html=1;" vertex="1" parent="8m9GqBXwm7ANQW8s6YDh-2">
          <mxGeometry y="268" width="170" height="26" as="geometry" />
        </mxCell>
        <mxCell id="8m9GqBXwm7ANQW8s6YDh-12" value="Shelter" style="swimlane;fontStyle=1;align=center;verticalAlign=top;childLayout=stackLayout;horizontal=1;startSize=26;horizontalStack=0;resizeParent=1;resizeParentMax=0;resizeLast=0;collapsible=1;marginBottom=0;whiteSpace=wrap;html=1;" vertex="1" parent="1">
          <mxGeometry x="25" y="390" width="160" height="372" as="geometry" />
        </mxCell>
        <mxCell id="8m9GqBXwm7ANQW8s6YDh-18" value="- int: foundationYear" style="text;strokeColor=none;fillColor=none;align=left;verticalAlign=top;spacingLeft=4;spacingRight=4;overflow=hidden;rotatable=0;points=[[0,0.5],[1,0.5]];portConstraint=eastwest;whiteSpace=wrap;html=1;" vertex="1" parent="8m9GqBXwm7ANQW8s6YDh-12">
          <mxGeometry y="26" width="160" height="26" as="geometry" />
        </mxCell>
        <mxCell id="8m9GqBXwm7ANQW8s6YDh-17" value="- int: contact" style="text;strokeColor=none;fillColor=none;align=left;verticalAlign=top;spacingLeft=4;spacingRight=4;overflow=hidden;rotatable=0;points=[[0,0.5],[1,0.5]];portConstraint=eastwest;whiteSpace=wrap;html=1;" vertex="1" parent="8m9GqBXwm7ANQW8s6YDh-12">
          <mxGeometry y="52" width="160" height="26" as="geometry" />
        </mxCell>
        <mxCell id="8m9GqBXwm7ANQW8s6YDh-16" value="- List&amp;lt;Donation&amp;gt;: donations" style="text;strokeColor=none;fillColor=none;align=left;verticalAlign=top;spacingLeft=4;spacingRight=4;overflow=hidden;rotatable=0;points=[[0,0.5],[1,0.5]];portConstraint=eastwest;whiteSpace=wrap;html=1;" vertex="1" parent="8m9GqBXwm7ANQW8s6YDh-12">
          <mxGeometry y="78" width="160" height="26" as="geometry" />
        </mxCell>
        <mxCell id="8m9GqBXwm7ANQW8s6YDh-13" value="- List&amp;lt;Animal&amp;gt;: animals" style="text;strokeColor=none;fillColor=none;align=left;verticalAlign=top;spacingLeft=4;spacingRight=4;overflow=hidden;rotatable=0;points=[[0,0.5],[1,0.5]];portConstraint=eastwest;whiteSpace=wrap;html=1;" vertex="1" parent="8m9GqBXwm7ANQW8s6YDh-12">
          <mxGeometry y="104" width="160" height="26" as="geometry" />
        </mxCell>
        <mxCell id="8m9GqBXwm7ANQW8s6YDh-75" value="- boolean: isVerified" style="text;strokeColor=none;fillColor=none;align=left;verticalAlign=top;spacingLeft=4;spacingRight=4;overflow=hidden;rotatable=0;points=[[0,0.5],[1,0.5]];portConstraint=eastwest;whiteSpace=wrap;html=1;" vertex="1" parent="8m9GqBXwm7ANQW8s6YDh-12">
          <mxGeometry y="130" width="160" height="26" as="geometry" />
        </mxCell>
        <mxCell id="8m9GqBXwm7ANQW8s6YDh-14" value="" style="line;strokeWidth=1;fillColor=none;align=left;verticalAlign=middle;spacingTop=-1;spacingLeft=3;spacingRight=3;rotatable=0;labelPosition=right;points=[];portConstraint=eastwest;strokeColor=inherit;" vertex="1" parent="8m9GqBXwm7ANQW8s6YDh-12">
          <mxGeometry y="156" width="160" height="8" as="geometry" />
        </mxCell>
        <mxCell id="8m9GqBXwm7ANQW8s6YDh-33" value="+ answerDeliveryRequest()" style="text;strokeColor=none;fillColor=none;align=left;verticalAlign=top;spacingLeft=4;spacingRight=4;overflow=hidden;rotatable=0;points=[[0,0.5],[1,0.5]];portConstraint=eastwest;whiteSpace=wrap;html=1;" vertex="1" parent="8m9GqBXwm7ANQW8s6YDh-12">
          <mxGeometry y="164" width="160" height="26" as="geometry" />
        </mxCell>
        <mxCell id="8m9GqBXwm7ANQW8s6YDh-35" value="+ registerAnimal()" style="text;strokeColor=none;fillColor=none;align=left;verticalAlign=top;spacingLeft=4;spacingRight=4;overflow=hidden;rotatable=0;points=[[0,0.5],[1,0.5]];portConstraint=eastwest;whiteSpace=wrap;html=1;" vertex="1" parent="8m9GqBXwm7ANQW8s6YDh-12">
          <mxGeometry y="190" width="160" height="26" as="geometry" />
        </mxCell>
        <mxCell id="8m9GqBXwm7ANQW8s6YDh-36" value="+ viewAnimals()" style="text;strokeColor=none;fillColor=none;align=left;verticalAlign=top;spacingLeft=4;spacingRight=4;overflow=hidden;rotatable=0;points=[[0,0.5],[1,0.5]];portConstraint=eastwest;whiteSpace=wrap;html=1;" vertex="1" parent="8m9GqBXwm7ANQW8s6YDh-12">
          <mxGeometry y="216" width="160" height="26" as="geometry" />
        </mxCell>
        <mxCell id="8m9GqBXwm7ANQW8s6YDh-37" value="+ changeAnimalAtribute()" style="text;strokeColor=none;fillColor=none;align=left;verticalAlign=top;spacingLeft=4;spacingRight=4;overflow=hidden;rotatable=0;points=[[0,0.5],[1,0.5]];portConstraint=eastwest;whiteSpace=wrap;html=1;" vertex="1" parent="8m9GqBXwm7ANQW8s6YDh-12">
          <mxGeometry y="242" width="160" height="26" as="geometry" />
        </mxCell>
        <mxCell id="8m9GqBXwm7ANQW8s6YDh-41" value="+ removeAnimal()" style="text;strokeColor=none;fillColor=none;align=left;verticalAlign=top;spacingLeft=4;spacingRight=4;overflow=hidden;rotatable=0;points=[[0,0.5],[1,0.5]];portConstraint=eastwest;whiteSpace=wrap;html=1;" vertex="1" parent="8m9GqBXwm7ANQW8s6YDh-12">
          <mxGeometry y="268" width="160" height="26" as="geometry" />
        </mxCell>
        <mxCell id="8m9GqBXwm7ANQW8s6YDh-40" value="+ viewDonations()" style="text;strokeColor=none;fillColor=none;align=left;verticalAlign=top;spacingLeft=4;spacingRight=4;overflow=hidden;rotatable=0;points=[[0,0.5],[1,0.5]];portConstraint=eastwest;whiteSpace=wrap;html=1;" vertex="1" parent="8m9GqBXwm7ANQW8s6YDh-12">
          <mxGeometry y="294" width="160" height="26" as="geometry" />
        </mxCell>
        <mxCell id="8m9GqBXwm7ANQW8s6YDh-39" style="text;strokeColor=none;fillColor=none;align=left;verticalAlign=top;spacingLeft=4;spacingRight=4;overflow=hidden;rotatable=0;points=[[0,0.5],[1,0.5]];portConstraint=eastwest;whiteSpace=wrap;html=1;" vertex="1" parent="8m9GqBXwm7ANQW8s6YDh-12">
          <mxGeometry y="320" width="160" height="26" as="geometry" />
        </mxCell>
        <mxCell id="8m9GqBXwm7ANQW8s6YDh-38" style="text;strokeColor=none;fillColor=none;align=left;verticalAlign=top;spacingLeft=4;spacingRight=4;overflow=hidden;rotatable=0;points=[[0,0.5],[1,0.5]];portConstraint=eastwest;whiteSpace=wrap;html=1;" vertex="1" parent="8m9GqBXwm7ANQW8s6YDh-12">
          <mxGeometry y="346" width="160" height="26" as="geometry" />
        </mxCell>
        <mxCell id="8m9GqBXwm7ANQW8s6YDh-19" value="Person" style="swimlane;fontStyle=1;align=center;verticalAlign=top;childLayout=stackLayout;horizontal=1;startSize=26;horizontalStack=0;resizeParent=1;resizeParentMax=0;resizeLast=0;collapsible=1;marginBottom=0;whiteSpace=wrap;html=1;" vertex="1" parent="1">
          <mxGeometry x="280" y="30" width="160" height="112" as="geometry" />
        </mxCell>
        <mxCell id="8m9GqBXwm7ANQW8s6YDh-20" value="- LocalDate: birthdate" style="text;strokeColor=none;fillColor=none;align=left;verticalAlign=top;spacingLeft=4;spacingRight=4;overflow=hidden;rotatable=0;points=[[0,0.5],[1,0.5]];portConstraint=eastwest;whiteSpace=wrap;html=1;" vertex="1" parent="8m9GqBXwm7ANQW8s6YDh-19">
          <mxGeometry y="26" width="160" height="26" as="geometry" />
        </mxCell>
        <mxCell id="8m9GqBXwm7ANQW8s6YDh-21" value="" style="line;strokeWidth=1;fillColor=none;align=left;verticalAlign=middle;spacingTop=-1;spacingLeft=3;spacingRight=3;rotatable=0;labelPosition=right;points=[];portConstraint=eastwest;strokeColor=inherit;" vertex="1" parent="8m9GqBXwm7ANQW8s6YDh-19">
          <mxGeometry y="52" width="160" height="8" as="geometry" />
        </mxCell>
        <mxCell id="8m9GqBXwm7ANQW8s6YDh-22" value="+ searchAnimals()" style="text;strokeColor=none;fillColor=none;align=left;verticalAlign=top;spacingLeft=4;spacingRight=4;overflow=hidden;rotatable=0;points=[[0,0.5],[1,0.5]];portConstraint=eastwest;whiteSpace=wrap;html=1;" vertex="1" parent="8m9GqBXwm7ANQW8s6YDh-19">
          <mxGeometry y="60" width="160" height="26" as="geometry" />
        </mxCell>
        <mxCell id="8m9GqBXwm7ANQW8s6YDh-46" value="+ searchShelters()" style="text;strokeColor=none;fillColor=none;align=left;verticalAlign=top;spacingLeft=4;spacingRight=4;overflow=hidden;rotatable=0;points=[[0,0.5],[1,0.5]];portConstraint=eastwest;whiteSpace=wrap;html=1;" vertex="1" parent="8m9GqBXwm7ANQW8s6YDh-19">
          <mxGeometry y="86" width="160" height="26" as="geometry" />
        </mxCell>
        <mxCell id="8m9GqBXwm7ANQW8s6YDh-23" value="User" style="swimlane;fontStyle=1;align=center;verticalAlign=top;childLayout=stackLayout;horizontal=1;startSize=26;horizontalStack=0;resizeParent=1;resizeParentMax=0;resizeLast=0;collapsible=1;marginBottom=0;whiteSpace=wrap;html=1;" vertex="1" parent="1">
          <mxGeometry x="270" y="200" width="200" height="320" as="geometry" />
        </mxCell>
        <mxCell id="8m9GqBXwm7ANQW8s6YDh-76" value="- int: contact" style="text;strokeColor=none;fillColor=none;align=left;verticalAlign=top;spacingLeft=4;spacingRight=4;overflow=hidden;rotatable=0;points=[[0,0.5],[1,0.5]];portConstraint=eastwest;whiteSpace=wrap;html=1;" vertex="1" parent="8m9GqBXwm7ANQW8s6YDh-23">
          <mxGeometry y="26" width="200" height="26" as="geometry" />
        </mxCell>
        <mxCell id="8m9GqBXwm7ANQW8s6YDh-96" value="- List&amp;lt;Adoption&amp;gt;: adoptions" style="text;strokeColor=none;fillColor=none;align=left;verticalAlign=top;spacingLeft=4;spacingRight=4;overflow=hidden;rotatable=0;points=[[0,0.5],[1,0.5]];portConstraint=eastwest;whiteSpace=wrap;html=1;" vertex="1" parent="8m9GqBXwm7ANQW8s6YDh-23">
          <mxGeometry y="52" width="200" height="26" as="geometry" />
        </mxCell>
        <mxCell id="8m9GqBXwm7ANQW8s6YDh-120" value="- List&amp;lt;Sponsorship&amp;gt;: sponsorships" style="text;strokeColor=none;fillColor=none;align=left;verticalAlign=top;spacingLeft=4;spacingRight=4;overflow=hidden;rotatable=0;points=[[0,0.5],[1,0.5]];portConstraint=eastwest;whiteSpace=wrap;html=1;" vertex="1" parent="8m9GqBXwm7ANQW8s6YDh-23">
          <mxGeometry y="78" width="200" height="26" as="geometry" />
        </mxCell>
        <mxCell id="8m9GqBXwm7ANQW8s6YDh-24" value="- List&amp;lt;Donation&amp;gt;: donations" style="text;strokeColor=none;fillColor=none;align=left;verticalAlign=top;spacingLeft=4;spacingRight=4;overflow=hidden;rotatable=0;points=[[0,0.5],[1,0.5]];portConstraint=eastwest;whiteSpace=wrap;html=1;" vertex="1" parent="8m9GqBXwm7ANQW8s6YDh-23">
          <mxGeometry y="104" width="200" height="26" as="geometry" />
        </mxCell>
        <mxCell id="8m9GqBXwm7ANQW8s6YDh-25" value="" style="line;strokeWidth=1;fillColor=none;align=left;verticalAlign=middle;spacingTop=-1;spacingLeft=3;spacingRight=3;rotatable=0;labelPosition=right;points=[];portConstraint=eastwest;strokeColor=inherit;" vertex="1" parent="8m9GqBXwm7ANQW8s6YDh-23">
          <mxGeometry y="130" width="200" height="8" as="geometry" />
        </mxCell>
        <mxCell id="8m9GqBXwm7ANQW8s6YDh-26" value="+ requestAnimal()" style="text;strokeColor=none;fillColor=none;align=left;verticalAlign=top;spacingLeft=4;spacingRight=4;overflow=hidden;rotatable=0;points=[[0,0.5],[1,0.5]];portConstraint=eastwest;whiteSpace=wrap;html=1;" vertex="1" parent="8m9GqBXwm7ANQW8s6YDh-23">
          <mxGeometry y="138" width="200" height="26" as="geometry" />
        </mxCell>
        <mxCell id="8m9GqBXwm7ANQW8s6YDh-44" value="+ viewRequests()" style="text;strokeColor=none;fillColor=none;align=left;verticalAlign=top;spacingLeft=4;spacingRight=4;overflow=hidden;rotatable=0;points=[[0,0.5],[1,0.5]];portConstraint=eastwest;whiteSpace=wrap;html=1;" vertex="1" parent="8m9GqBXwm7ANQW8s6YDh-23">
          <mxGeometry y="164" width="200" height="26" as="geometry" />
        </mxCell>
        <mxCell id="8m9GqBXwm7ANQW8s6YDh-43" value="+ requestAdoption()" style="text;strokeColor=none;fillColor=none;align=left;verticalAlign=top;spacingLeft=4;spacingRight=4;overflow=hidden;rotatable=0;points=[[0,0.5],[1,0.5]];portConstraint=eastwest;whiteSpace=wrap;html=1;" vertex="1" parent="8m9GqBXwm7ANQW8s6YDh-23">
          <mxGeometry y="190" width="200" height="26" as="geometry" />
        </mxCell>
        <mxCell id="8m9GqBXwm7ANQW8s6YDh-42" value="+ requestFostering()" style="text;strokeColor=none;fillColor=none;align=left;verticalAlign=top;spacingLeft=4;spacingRight=4;overflow=hidden;rotatable=0;points=[[0,0.5],[1,0.5]];portConstraint=eastwest;whiteSpace=wrap;html=1;" vertex="1" parent="8m9GqBXwm7ANQW8s6YDh-23">
          <mxGeometry y="216" width="200" height="26" as="geometry" />
        </mxCell>
        <mxCell id="8m9GqBXwm7ANQW8s6YDh-49" value="+ sponsor()" style="text;strokeColor=none;fillColor=none;align=left;verticalAlign=top;spacingLeft=4;spacingRight=4;overflow=hidden;rotatable=0;points=[[0,0.5],[1,0.5]];portConstraint=eastwest;whiteSpace=wrap;html=1;" vertex="1" parent="8m9GqBXwm7ANQW8s6YDh-23">
          <mxGeometry y="242" width="200" height="26" as="geometry" />
        </mxCell>
        <mxCell id="8m9GqBXwm7ANQW8s6YDh-48" value="+ viewDonationHistory()" style="text;strokeColor=none;fillColor=none;align=left;verticalAlign=top;spacingLeft=4;spacingRight=4;overflow=hidden;rotatable=0;points=[[0,0.5],[1,0.5]];portConstraint=eastwest;whiteSpace=wrap;html=1;" vertex="1" parent="8m9GqBXwm7ANQW8s6YDh-23">
          <mxGeometry y="268" width="200" height="26" as="geometry" />
        </mxCell>
        <mxCell id="8m9GqBXwm7ANQW8s6YDh-47" value="+ cancelSponsorship()" style="text;strokeColor=none;fillColor=none;align=left;verticalAlign=top;spacingLeft=4;spacingRight=4;overflow=hidden;rotatable=0;points=[[0,0.5],[1,0.5]];portConstraint=eastwest;whiteSpace=wrap;html=1;" vertex="1" parent="8m9GqBXwm7ANQW8s6YDh-23">
          <mxGeometry y="294" width="200" height="26" as="geometry" />
        </mxCell>
        <mxCell id="8m9GqBXwm7ANQW8s6YDh-27" value="Admin" style="swimlane;fontStyle=1;align=center;verticalAlign=top;childLayout=stackLayout;horizontal=1;startSize=26;horizontalStack=0;resizeParent=1;resizeParentMax=0;resizeLast=0;collapsible=1;marginBottom=0;whiteSpace=wrap;html=1;" vertex="1" parent="1">
          <mxGeometry x="500" y="30" width="160" height="156" as="geometry" />
        </mxCell>
        <mxCell id="8m9GqBXwm7ANQW8s6YDh-30" value="+ answerJoinRequest()" style="text;strokeColor=none;fillColor=none;align=left;verticalAlign=top;spacingLeft=4;spacingRight=4;overflow=hidden;rotatable=0;points=[[0,0.5],[1,0.5]];portConstraint=eastwest;whiteSpace=wrap;html=1;" vertex="1" parent="8m9GqBXwm7ANQW8s6YDh-27">
          <mxGeometry y="26" width="160" height="26" as="geometry" />
        </mxCell>
        <mxCell id="8m9GqBXwm7ANQW8s6YDh-31" value="+ removeShelter()" style="text;strokeColor=none;fillColor=none;align=left;verticalAlign=top;spacingLeft=4;spacingRight=4;overflow=hidden;rotatable=0;points=[[0,0.5],[1,0.5]];portConstraint=eastwest;whiteSpace=wrap;html=1;" vertex="1" parent="8m9GqBXwm7ANQW8s6YDh-27">
          <mxGeometry y="52" width="160" height="26" as="geometry" />
        </mxCell>
        <mxCell id="8m9GqBXwm7ANQW8s6YDh-45" value="+ viewAnimalSponsors()" style="text;strokeColor=none;fillColor=none;align=left;verticalAlign=top;spacingLeft=4;spacingRight=4;overflow=hidden;rotatable=0;points=[[0,0.5],[1,0.5]];portConstraint=eastwest;whiteSpace=wrap;html=1;" vertex="1" parent="8m9GqBXwm7ANQW8s6YDh-27">
          <mxGeometry y="78" width="160" height="26" as="geometry" />
        </mxCell>
        <mxCell id="8m9GqBXwm7ANQW8s6YDh-64" value="+ viewAdoptions()" style="text;strokeColor=none;fillColor=none;align=left;verticalAlign=top;spacingLeft=4;spacingRight=4;overflow=hidden;rotatable=0;points=[[0,0.5],[1,0.5]];portConstraint=eastwest;whiteSpace=wrap;html=1;" vertex="1" parent="8m9GqBXwm7ANQW8s6YDh-27">
          <mxGeometry y="104" width="160" height="26" as="geometry" />
        </mxCell>
        <mxCell id="8m9GqBXwm7ANQW8s6YDh-63" value="+ viewDonations()" style="text;strokeColor=none;fillColor=none;align=left;verticalAlign=top;spacingLeft=4;spacingRight=4;overflow=hidden;rotatable=0;points=[[0,0.5],[1,0.5]];portConstraint=eastwest;whiteSpace=wrap;html=1;" vertex="1" parent="8m9GqBXwm7ANQW8s6YDh-27">
          <mxGeometry y="130" width="160" height="26" as="geometry" />
        </mxCell>
        <mxCell id="8m9GqBXwm7ANQW8s6YDh-50" value="Animal" style="swimlane;fontStyle=1;align=center;verticalAlign=top;childLayout=stackLayout;horizontal=1;startSize=26;horizontalStack=0;resizeParent=1;resizeParentMax=0;resizeLast=0;collapsible=1;marginBottom=0;whiteSpace=wrap;html=1;" vertex="1" parent="1">
          <mxGeometry x="550" y="680" width="160" height="312" as="geometry" />
        </mxCell>
        <mxCell id="8m9GqBXwm7ANQW8s6YDh-65" value="- String name" style="text;strokeColor=none;fillColor=none;align=left;verticalAlign=top;spacingLeft=4;spacingRight=4;overflow=hidden;rotatable=0;points=[[0,0.5],[1,0.5]];portConstraint=eastwest;whiteSpace=wrap;html=1;" vertex="1" parent="8m9GqBXwm7ANQW8s6YDh-50">
          <mxGeometry y="26" width="160" height="26" as="geometry" />
        </mxCell>
        <mxCell id="8m9GqBXwm7ANQW8s6YDh-66" value="- AnimalType: type" style="text;strokeColor=none;fillColor=none;align=left;verticalAlign=top;spacingLeft=4;spacingRight=4;overflow=hidden;rotatable=0;points=[[0,0.5],[1,0.5]];portConstraint=eastwest;whiteSpace=wrap;html=1;" vertex="1" parent="8m9GqBXwm7ANQW8s6YDh-50">
          <mxGeometry y="52" width="160" height="26" as="geometry" />
        </mxCell>
        <mxCell id="8m9GqBXwm7ANQW8s6YDh-68" value="- AnimalRace: race" style="text;strokeColor=none;fillColor=none;align=left;verticalAlign=top;spacingLeft=4;spacingRight=4;overflow=hidden;rotatable=0;points=[[0,0.5],[1,0.5]];portConstraint=eastwest;whiteSpace=wrap;html=1;" vertex="1" parent="8m9GqBXwm7ANQW8s6YDh-50">
          <mxGeometry y="78" width="160" height="26" as="geometry" />
        </mxCell>
        <mxCell id="8m9GqBXwm7ANQW8s6YDh-70" value="- AnimalColor: color" style="text;strokeColor=none;fillColor=none;align=left;verticalAlign=top;spacingLeft=4;spacingRight=4;overflow=hidden;rotatable=0;points=[[0,0.5],[1,0.5]];portConstraint=eastwest;whiteSpace=wrap;html=1;" vertex="1" parent="8m9GqBXwm7ANQW8s6YDh-50">
          <mxGeometry y="104" width="160" height="26" as="geometry" />
        </mxCell>
        <mxCell id="8m9GqBXwm7ANQW8s6YDh-71" value="- boolean: isVacinated" style="text;strokeColor=none;fillColor=none;align=left;verticalAlign=top;spacingLeft=4;spacingRight=4;overflow=hidden;rotatable=0;points=[[0,0.5],[1,0.5]];portConstraint=eastwest;whiteSpace=wrap;html=1;" vertex="1" parent="8m9GqBXwm7ANQW8s6YDh-50">
          <mxGeometry y="130" width="160" height="26" as="geometry" />
        </mxCell>
        <mxCell id="8m9GqBXwm7ANQW8s6YDh-67" value="- AnimalSize: Size" style="text;strokeColor=none;fillColor=none;align=left;verticalAlign=top;spacingLeft=4;spacingRight=4;overflow=hidden;rotatable=0;points=[[0,0.5],[1,0.5]];portConstraint=eastwest;whiteSpace=wrap;html=1;" vertex="1" parent="8m9GqBXwm7ANQW8s6YDh-50">
          <mxGeometry y="156" width="160" height="26" as="geometry" />
        </mxCell>
        <mxCell id="8m9GqBXwm7ANQW8s6YDh-72" value="- AdoptionType: listedFor" style="text;strokeColor=none;fillColor=none;align=left;verticalAlign=top;spacingLeft=4;spacingRight=4;overflow=hidden;rotatable=0;points=[[0,0.5],[1,0.5]];portConstraint=eastwest;whiteSpace=wrap;html=1;" vertex="1" parent="8m9GqBXwm7ANQW8s6YDh-50">
          <mxGeometry y="182" width="160" height="26" as="geometry" />
        </mxCell>
        <mxCell id="8m9GqBXwm7ANQW8s6YDh-73" value="- String: description" style="text;strokeColor=none;fillColor=none;align=left;verticalAlign=top;spacingLeft=4;spacingRight=4;overflow=hidden;rotatable=0;points=[[0,0.5],[1,0.5]];portConstraint=eastwest;whiteSpace=wrap;html=1;" vertex="1" parent="8m9GqBXwm7ANQW8s6YDh-50">
          <mxGeometry y="208" width="160" height="26" as="geometry" />
        </mxCell>
        <mxCell id="8m9GqBXwm7ANQW8s6YDh-74" value="- Image: image" style="text;strokeColor=none;fillColor=none;align=left;verticalAlign=top;spacingLeft=4;spacingRight=4;overflow=hidden;rotatable=0;points=[[0,0.5],[1,0.5]];portConstraint=eastwest;whiteSpace=wrap;html=1;" vertex="1" parent="8m9GqBXwm7ANQW8s6YDh-50">
          <mxGeometry y="234" width="160" height="26" as="geometry" />
        </mxCell>
        <mxCell id="8m9GqBXwm7ANQW8s6YDh-95" value="- List&amp;lt;Adoption&amp;gt;: adoptions" style="text;strokeColor=none;fillColor=none;align=left;verticalAlign=top;spacingLeft=4;spacingRight=4;overflow=hidden;rotatable=0;points=[[0,0.5],[1,0.5]];portConstraint=eastwest;whiteSpace=wrap;html=1;" vertex="1" parent="8m9GqBXwm7ANQW8s6YDh-50">
          <mxGeometry y="260" width="160" height="26" as="geometry" />
        </mxCell>
        <mxCell id="8m9GqBXwm7ANQW8s6YDh-59" value="- List&amp;lt;Sponsor&amp;gt;: sponsors" style="text;strokeColor=none;fillColor=none;align=left;verticalAlign=top;spacingLeft=4;spacingRight=4;overflow=hidden;rotatable=0;points=[[0,0.5],[1,0.5]];portConstraint=eastwest;whiteSpace=wrap;html=1;" vertex="1" parent="8m9GqBXwm7ANQW8s6YDh-50">
          <mxGeometry y="286" width="160" height="26" as="geometry" />
        </mxCell>
        <mxCell id="8m9GqBXwm7ANQW8s6YDh-54" value="Donation" style="swimlane;fontStyle=1;align=center;verticalAlign=top;childLayout=stackLayout;horizontal=1;startSize=26;horizontalStack=0;resizeParent=1;resizeParentMax=0;resizeLast=0;collapsible=1;marginBottom=0;whiteSpace=wrap;html=1;" vertex="1" parent="1">
          <mxGeometry x="280" y="570" width="160" height="156" as="geometry" />
        </mxCell>
        <mxCell id="8m9GqBXwm7ANQW8s6YDh-61" value="- Shelter: receiver" style="text;strokeColor=none;fillColor=none;align=left;verticalAlign=top;spacingLeft=4;spacingRight=4;overflow=hidden;rotatable=0;points=[[0,0.5],[1,0.5]];portConstraint=eastwest;whiteSpace=wrap;html=1;" vertex="1" parent="8m9GqBXwm7ANQW8s6YDh-54">
          <mxGeometry y="26" width="160" height="26" as="geometry" />
        </mxCell>
        <mxCell id="8m9GqBXwm7ANQW8s6YDh-62" value="- Animal: animal" style="text;strokeColor=none;fillColor=none;align=left;verticalAlign=top;spacingLeft=4;spacingRight=4;overflow=hidden;rotatable=0;points=[[0,0.5],[1,0.5]];portConstraint=eastwest;whiteSpace=wrap;html=1;" vertex="1" parent="8m9GqBXwm7ANQW8s6YDh-54">
          <mxGeometry y="52" width="160" height="26" as="geometry" />
        </mxCell>
        <mxCell id="8m9GqBXwm7ANQW8s6YDh-60" value="- User: donator" style="text;strokeColor=none;fillColor=none;align=left;verticalAlign=top;spacingLeft=4;spacingRight=4;overflow=hidden;rotatable=0;points=[[0,0.5],[1,0.5]];portConstraint=eastwest;whiteSpace=wrap;html=1;" vertex="1" parent="8m9GqBXwm7ANQW8s6YDh-54">
          <mxGeometry y="78" width="160" height="26" as="geometry" />
        </mxCell>
        <mxCell id="8m9GqBXwm7ANQW8s6YDh-55" value="- float: amount" style="text;strokeColor=none;fillColor=none;align=left;verticalAlign=top;spacingLeft=4;spacingRight=4;overflow=hidden;rotatable=0;points=[[0,0.5],[1,0.5]];portConstraint=eastwest;whiteSpace=wrap;html=1;" vertex="1" parent="8m9GqBXwm7ANQW8s6YDh-54">
          <mxGeometry y="104" width="160" height="26" as="geometry" />
        </mxCell>
        <mxCell id="8m9GqBXwm7ANQW8s6YDh-77" value="- LocalDate: date" style="text;strokeColor=none;fillColor=none;align=left;verticalAlign=top;spacingLeft=4;spacingRight=4;overflow=hidden;rotatable=0;points=[[0,0.5],[1,0.5]];portConstraint=eastwest;whiteSpace=wrap;html=1;" vertex="1" parent="8m9GqBXwm7ANQW8s6YDh-54">
          <mxGeometry y="130" width="160" height="26" as="geometry" />
        </mxCell>
        <mxCell id="8m9GqBXwm7ANQW8s6YDh-81" value="LostReport" style="swimlane;fontStyle=1;align=center;verticalAlign=top;childLayout=stackLayout;horizontal=1;startSize=26;horizontalStack=0;resizeParent=1;resizeParentMax=0;resizeLast=0;collapsible=1;marginBottom=0;whiteSpace=wrap;html=1;" vertex="1" parent="1">
          <mxGeometry x="50" y="860" width="160" height="130" as="geometry" />
        </mxCell>
        <mxCell id="8m9GqBXwm7ANQW8s6YDh-85" value="- Animal: animal" style="text;strokeColor=none;fillColor=none;align=left;verticalAlign=top;spacingLeft=4;spacingRight=4;overflow=hidden;rotatable=0;points=[[0,0.5],[1,0.5]];portConstraint=eastwest;whiteSpace=wrap;html=1;" vertex="1" parent="8m9GqBXwm7ANQW8s6YDh-81">
          <mxGeometry y="26" width="160" height="26" as="geometry" />
        </mxCell>
        <mxCell id="8m9GqBXwm7ANQW8s6YDh-97" value="- LocalDate: date" style="text;strokeColor=none;fillColor=none;align=left;verticalAlign=top;spacingLeft=4;spacingRight=4;overflow=hidden;rotatable=0;points=[[0,0.5],[1,0.5]];portConstraint=eastwest;whiteSpace=wrap;html=1;" vertex="1" parent="8m9GqBXwm7ANQW8s6YDh-81">
          <mxGeometry y="52" width="160" height="26" as="geometry" />
        </mxCell>
        <mxCell id="8m9GqBXwm7ANQW8s6YDh-98" value="- String: descrição" style="text;strokeColor=none;fillColor=none;align=left;verticalAlign=top;spacingLeft=4;spacingRight=4;overflow=hidden;rotatable=0;points=[[0,0.5],[1,0.5]];portConstraint=eastwest;whiteSpace=wrap;html=1;" vertex="1" parent="8m9GqBXwm7ANQW8s6YDh-81">
          <mxGeometry y="78" width="160" height="26" as="geometry" />
        </mxCell>
        <mxCell id="8m9GqBXwm7ANQW8s6YDh-82" value="- int: contact" style="text;strokeColor=none;fillColor=none;align=left;verticalAlign=top;spacingLeft=4;spacingRight=4;overflow=hidden;rotatable=0;points=[[0,0.5],[1,0.5]];portConstraint=eastwest;whiteSpace=wrap;html=1;" vertex="1" parent="8m9GqBXwm7ANQW8s6YDh-81">
          <mxGeometry y="104" width="160" height="26" as="geometry" />
        </mxCell>
        <mxCell id="8m9GqBXwm7ANQW8s6YDh-86" value="Adoption" style="swimlane;fontStyle=1;align=center;verticalAlign=top;childLayout=stackLayout;horizontal=1;startSize=26;horizontalStack=0;resizeParent=1;resizeParentMax=0;resizeLast=0;collapsible=1;marginBottom=0;whiteSpace=wrap;html=1;" vertex="1" parent="1">
          <mxGeometry x="550" y="380" width="160" height="190" as="geometry" />
        </mxCell>
        <mxCell id="8m9GqBXwm7ANQW8s6YDh-87" value="- User: user" style="text;strokeColor=none;fillColor=none;align=left;verticalAlign=top;spacingLeft=4;spacingRight=4;overflow=hidden;rotatable=0;points=[[0,0.5],[1,0.5]];portConstraint=eastwest;whiteSpace=wrap;html=1;" vertex="1" parent="8m9GqBXwm7ANQW8s6YDh-86">
          <mxGeometry y="26" width="160" height="26" as="geometry" />
        </mxCell>
        <mxCell id="8m9GqBXwm7ANQW8s6YDh-93" value="- Shelter: shelter" style="text;strokeColor=none;fillColor=none;align=left;verticalAlign=top;spacingLeft=4;spacingRight=4;overflow=hidden;rotatable=0;points=[[0,0.5],[1,0.5]];portConstraint=eastwest;whiteSpace=wrap;html=1;" vertex="1" parent="8m9GqBXwm7ANQW8s6YDh-86">
          <mxGeometry y="52" width="160" height="26" as="geometry" />
        </mxCell>
        <mxCell id="8m9GqBXwm7ANQW8s6YDh-90" value="- Animal: animal" style="text;strokeColor=none;fillColor=none;align=left;verticalAlign=top;spacingLeft=4;spacingRight=4;overflow=hidden;rotatable=0;points=[[0,0.5],[1,0.5]];portConstraint=eastwest;whiteSpace=wrap;html=1;" vertex="1" parent="8m9GqBXwm7ANQW8s6YDh-86">
          <mxGeometry y="78" width="160" height="26" as="geometry" />
        </mxCell>
        <mxCell id="8m9GqBXwm7ANQW8s6YDh-91" value="- LocalDate: date" style="text;strokeColor=none;fillColor=none;align=left;verticalAlign=top;spacingLeft=4;spacingRight=4;overflow=hidden;rotatable=0;points=[[0,0.5],[1,0.5]];portConstraint=eastwest;whiteSpace=wrap;html=1;" vertex="1" parent="8m9GqBXwm7ANQW8s6YDh-86">
          <mxGeometry y="104" width="160" height="26" as="geometry" />
        </mxCell>
        <mxCell id="8m9GqBXwm7ANQW8s6YDh-92" value="- AdoptionType: type" style="text;strokeColor=none;fillColor=none;align=left;verticalAlign=top;spacingLeft=4;spacingRight=4;overflow=hidden;rotatable=0;points=[[0,0.5],[1,0.5]];portConstraint=eastwest;whiteSpace=wrap;html=1;" vertex="1" parent="8m9GqBXwm7ANQW8s6YDh-86">
          <mxGeometry y="130" width="160" height="26" as="geometry" />
        </mxCell>
        <mxCell id="8m9GqBXwm7ANQW8s6YDh-88" value="" style="line;strokeWidth=1;fillColor=none;align=left;verticalAlign=middle;spacingTop=-1;spacingLeft=3;spacingRight=3;rotatable=0;labelPosition=right;points=[];portConstraint=eastwest;strokeColor=inherit;" vertex="1" parent="8m9GqBXwm7ANQW8s6YDh-86">
          <mxGeometry y="156" width="160" height="8" as="geometry" />
        </mxCell>
        <mxCell id="8m9GqBXwm7ANQW8s6YDh-89" value="+ method(type): type" style="text;strokeColor=none;fillColor=none;align=left;verticalAlign=top;spacingLeft=4;spacingRight=4;overflow=hidden;rotatable=0;points=[[0,0.5],[1,0.5]];portConstraint=eastwest;whiteSpace=wrap;html=1;" vertex="1" parent="8m9GqBXwm7ANQW8s6YDh-86">
          <mxGeometry y="164" width="160" height="26" as="geometry" />
        </mxCell>
        <mxCell id="8m9GqBXwm7ANQW8s6YDh-101" value="" style="endArrow=classic;html=1;rounded=0;" edge="1" parent="1" source="8m9GqBXwm7ANQW8s6YDh-2" target="8m9GqBXwm7ANQW8s6YDh-12">
          <mxGeometry relative="1" as="geometry">
            <mxPoint x="50" y="346.57" as="sourcePoint" />
            <mxPoint x="150" y="346.57" as="targetPoint" />
          </mxGeometry>
        </mxCell>
        <mxCell id="8m9GqBXwm7ANQW8s6YDh-102" value="is-a" style="edgeLabel;resizable=0;html=1;;align=center;verticalAlign=middle;" connectable="0" vertex="1" parent="8m9GqBXwm7ANQW8s6YDh-101">
          <mxGeometry relative="1" as="geometry" />
        </mxCell>
        <mxCell id="8m9GqBXwm7ANQW8s6YDh-103" value="" style="endArrow=classic;html=1;rounded=0;" edge="1" parent="1" source="8m9GqBXwm7ANQW8s6YDh-2" target="8m9GqBXwm7ANQW8s6YDh-19">
          <mxGeometry relative="1" as="geometry">
            <mxPoint x="240" y="230" as="sourcePoint" />
            <mxPoint x="230" y="90" as="targetPoint" />
            <Array as="points">
              <mxPoint x="240" y="167" />
              <mxPoint x="240" y="86" />
            </Array>
          </mxGeometry>
        </mxCell>
        <mxCell id="8m9GqBXwm7ANQW8s6YDh-104" value="is-a" style="edgeLabel;resizable=0;html=1;;align=center;verticalAlign=middle;" connectable="0" vertex="1" parent="8m9GqBXwm7ANQW8s6YDh-103">
          <mxGeometry relative="1" as="geometry" />
        </mxCell>
        <mxCell id="8m9GqBXwm7ANQW8s6YDh-105" value="" style="endArrow=classic;html=1;rounded=0;" edge="1" parent="1" source="8m9GqBXwm7ANQW8s6YDh-19" target="8m9GqBXwm7ANQW8s6YDh-23">
          <mxGeometry relative="1" as="geometry">
            <mxPoint x="280" y="150" as="sourcePoint" />
            <mxPoint x="280" y="226" as="targetPoint" />
          </mxGeometry>
        </mxCell>
        <mxCell id="8m9GqBXwm7ANQW8s6YDh-106" value="is-a" style="edgeLabel;resizable=0;html=1;;align=center;verticalAlign=middle;" connectable="0" vertex="1" parent="8m9GqBXwm7ANQW8s6YDh-105">
          <mxGeometry relative="1" as="geometry" />
        </mxCell>
        <mxCell id="8m9GqBXwm7ANQW8s6YDh-107" value="" style="endArrow=classic;html=1;rounded=0;entryX=-0.009;entryY=1.151;entryDx=0;entryDy=0;entryPerimeter=0;" edge="1" parent="1" source="8m9GqBXwm7ANQW8s6YDh-19" target="8m9GqBXwm7ANQW8s6YDh-30">
          <mxGeometry relative="1" as="geometry">
            <mxPoint x="480" y="70" as="sourcePoint" />
            <mxPoint x="480" y="128" as="targetPoint" />
            <Array as="points">
              <mxPoint x="440" y="130" />
              <mxPoint x="440" y="120" />
            </Array>
          </mxGeometry>
        </mxCell>
        <mxCell id="8m9GqBXwm7ANQW8s6YDh-108" value="is-a" style="edgeLabel;resizable=0;html=1;;align=center;verticalAlign=middle;" connectable="0" vertex="1" parent="8m9GqBXwm7ANQW8s6YDh-107">
          <mxGeometry relative="1" as="geometry" />
        </mxCell>
        <mxCell id="8m9GqBXwm7ANQW8s6YDh-110" value="" style="endArrow=classic;html=1;rounded=0;" edge="1" parent="1" source="8m9GqBXwm7ANQW8s6YDh-23" target="8m9GqBXwm7ANQW8s6YDh-54">
          <mxGeometry relative="1" as="geometry">
            <mxPoint x="425" y="500" as="sourcePoint" />
            <mxPoint x="525" y="500" as="targetPoint" />
          </mxGeometry>
        </mxCell>
        <mxCell id="8m9GqBXwm7ANQW8s6YDh-111" value="has-a" style="edgeLabel;resizable=0;html=1;;align=center;verticalAlign=middle;" connectable="0" vertex="1" parent="8m9GqBXwm7ANQW8s6YDh-110">
          <mxGeometry relative="1" as="geometry" />
        </mxCell>
        <mxCell id="8m9GqBXwm7ANQW8s6YDh-112" value="" style="endArrow=classic;html=1;rounded=0;exitX=1;exitY=0.5;exitDx=0;exitDy=0;" edge="1" parent="1" source="8m9GqBXwm7ANQW8s6YDh-37" target="8m9GqBXwm7ANQW8s6YDh-54">
          <mxGeometry relative="1" as="geometry">
            <mxPoint x="185" y="630" as="sourcePoint" />
            <mxPoint x="230" y="586" as="targetPoint" />
            <Array as="points" />
          </mxGeometry>
        </mxCell>
        <mxCell id="8m9GqBXwm7ANQW8s6YDh-113" value="has-a" style="edgeLabel;resizable=0;html=1;;align=center;verticalAlign=middle;" connectable="0" vertex="1" parent="8m9GqBXwm7ANQW8s6YDh-112">
          <mxGeometry relative="1" as="geometry" />
        </mxCell>
        <mxCell id="8m9GqBXwm7ANQW8s6YDh-115" value="" style="endArrow=classic;html=1;rounded=0;exitX=1;exitY=0.5;exitDx=0;exitDy=0;" edge="1" parent="1" source="8m9GqBXwm7ANQW8s6YDh-26" target="8m9GqBXwm7ANQW8s6YDh-86">
          <mxGeometry relative="1" as="geometry">
            <mxPoint x="490" y="591" as="sourcePoint" />
            <mxPoint x="585" y="590" as="targetPoint" />
            <Array as="points">
              <mxPoint x="630" y="350" />
            </Array>
          </mxGeometry>
        </mxCell>
        <mxCell id="8m9GqBXwm7ANQW8s6YDh-116" value="has-a" style="edgeLabel;resizable=0;html=1;;align=center;verticalAlign=middle;" connectable="0" vertex="1" parent="8m9GqBXwm7ANQW8s6YDh-115">
          <mxGeometry relative="1" as="geometry" />
        </mxCell>
        <mxCell id="8m9GqBXwm7ANQW8s6YDh-117" value="" style="endArrow=classic;html=1;rounded=0;" edge="1" parent="1" source="8m9GqBXwm7ANQW8s6YDh-50" target="8m9GqBXwm7ANQW8s6YDh-86">
          <mxGeometry relative="1" as="geometry">
            <mxPoint x="750" y="540" as="sourcePoint" />
            <mxPoint x="750" y="650" as="targetPoint" />
          </mxGeometry>
        </mxCell>
        <mxCell id="8m9GqBXwm7ANQW8s6YDh-118" value="has-a" style="edgeLabel;resizable=0;html=1;;align=center;verticalAlign=middle;" connectable="0" vertex="1" parent="8m9GqBXwm7ANQW8s6YDh-117">
          <mxGeometry relative="1" as="geometry" />
        </mxCell>
        <mxCell id="8m9GqBXwm7ANQW8s6YDh-121" value="Sponsorship" style="swimlane;fontStyle=0;childLayout=stackLayout;horizontal=1;startSize=26;fillColor=none;horizontalStack=0;resizeParent=1;resizeParentMax=0;resizeLast=0;collapsible=1;marginBottom=0;whiteSpace=wrap;html=1;" vertex="1" parent="1">
          <mxGeometry x="460" y="590" width="140" height="78" as="geometry" />
        </mxCell>
        <mxCell id="8m9GqBXwm7ANQW8s6YDh-122" value="- User: user" style="text;strokeColor=none;fillColor=none;align=left;verticalAlign=top;spacingLeft=4;spacingRight=4;overflow=hidden;rotatable=0;points=[[0,0.5],[1,0.5]];portConstraint=eastwest;whiteSpace=wrap;html=1;" vertex="1" parent="8m9GqBXwm7ANQW8s6YDh-121">
          <mxGeometry y="26" width="140" height="26" as="geometry" />
        </mxCell>
        <mxCell id="8m9GqBXwm7ANQW8s6YDh-124" value="- Animal: animal" style="text;strokeColor=none;fillColor=none;align=left;verticalAlign=top;spacingLeft=4;spacingRight=4;overflow=hidden;rotatable=0;points=[[0,0.5],[1,0.5]];portConstraint=eastwest;whiteSpace=wrap;html=1;" vertex="1" parent="8m9GqBXwm7ANQW8s6YDh-121">
          <mxGeometry y="52" width="140" height="26" as="geometry" />
        </mxCell>
        <mxCell id="8m9GqBXwm7ANQW8s6YDh-125" value="" style="endArrow=classic;html=1;rounded=0;entryX=0.424;entryY=-0.051;entryDx=0;entryDy=0;entryPerimeter=0;" edge="1" parent="1" source="8m9GqBXwm7ANQW8s6YDh-23" target="8m9GqBXwm7ANQW8s6YDh-121">
          <mxGeometry relative="1" as="geometry">
            <mxPoint x="359.57" y="730" as="sourcePoint" />
            <mxPoint x="359.57" y="840" as="targetPoint" />
            <Array as="points">
              <mxPoint x="520" y="360" />
            </Array>
          </mxGeometry>
        </mxCell>
        <mxCell id="8m9GqBXwm7ANQW8s6YDh-126" value="has-a" style="edgeLabel;resizable=0;html=1;;align=center;verticalAlign=middle;" connectable="0" vertex="1" parent="8m9GqBXwm7ANQW8s6YDh-125">
          <mxGeometry relative="1" as="geometry" />
        </mxCell>
        <mxCell id="8m9GqBXwm7ANQW8s6YDh-127" value="" style="endArrow=classic;html=1;rounded=0;" edge="1" parent="1" source="8m9GqBXwm7ANQW8s6YDh-50">
          <mxGeometry relative="1" as="geometry">
            <mxPoint x="500" y="794" as="sourcePoint" />
            <mxPoint x="490" y="670" as="targetPoint" />
            <Array as="points">
              <mxPoint x="490" y="840" />
            </Array>
          </mxGeometry>
        </mxCell>
        <mxCell id="8m9GqBXwm7ANQW8s6YDh-128" value="has-a" style="edgeLabel;resizable=0;html=1;;align=center;verticalAlign=middle;" connectable="0" vertex="1" parent="8m9GqBXwm7ANQW8s6YDh-127">
          <mxGeometry relative="1" as="geometry" />
        </mxCell>
      </root>
    </mxGraphModel>
  </diagram>
</mxfile>
